<svg width="17" height="15" viewBox="0 0 17 15"  xmlns="http://www.w3.org/2000/svg" fill="none">
<path d="M6.25 10C6.55 10 6.75 9.8 6.75 9.5C6.75 9.2 6.55 9 6.25 9C5.95 9 5.75 9.2 5.75 9.5C5.75 9.8 5.95 10 6.25 10Z" fill="#000000"/>
<path d="M15.5 2H13.5V0H12.5V2H4.5V0H3.5V2H1.5C0.9 2 0.5 2.4 0.5 3V14C0.5 14.5 0.9 15 1.5 15H15.5C16 15 16.5 14.5 16.5 14V3C16.5 2.4 16 2 15.5 2ZM15.5 14H1.5V7H15.5V14ZM1.5 6V3H3.5V5H4.5V3H12.5V5H13.5V3H15.5V6H1.5Z" fill="#000000"/>
<path d="M8.5 10C8.8 10 9 9.8 9 9.5C9 9.2 8.8 9 8.5 9C8.2 9 8 9.2 8 9.5C8 9.8 8.2 10 8.5 10Z" fill="#000000"/>
<path d="M10.75 10C11.05 10 11.25 9.8 11.25 9.5C11.25 9.2 11.05 9 10.75 9C10.45 9 10.25 9.2 10.25 9.5C10.25 9.8 10.45 10 10.75 10Z" fill="#000000"/>
<path d="M6.25 11C5.95 11 5.75 11.2 5.75 11.5C5.75 11.8 5.95 12 6.25 12C6.55 12 6.75 11.8 6.75 11.5C6.75 11.2 6.55 11 6.25 11Z" fill="#000000"/>
<path d="M4 10C4.3 10 4.5 9.8 4.5 9.5C4.5 9.2 4.3 9 4 9C3.7 9 3.5 9.2 3.5 9.5C3.5 9.8 3.7 10 4 10Z" fill="#000000"/>
<path d="M4 11C3.7 11 3.5 11.2 3.5 11.5C3.5 11.8 3.7 12 4 12C4.3 12 4.5 11.8 4.5 11.5C4.5 11.2 4.3 11 4 11Z" fill="#000000"/>
<path d="M8.5 11C8.2 11 8 11.2 8 11.5C8 11.8 8.2 12 8.5 12C8.8 12 9 11.8 9 11.5C9 11.2 8.8 11 8.5 11Z" fill="#000000"/>
<path d="M10.75 11C10.45 11 10.25 11.2 10.25 11.5C10.25 11.8 10.45 12 10.75 12C11.05 12 11.25 11.8 11.25 11.5C11.25 11.2 11.05 11 10.75 11Z" fill="#000000"/>
<path d="M13 10C13.3 10 13.5 9.8 13.5 9.5C13.5 9.2 13.3 9 13 9C12.7 9 12.5 9.2 12.5 9.5C12.5 9.8 12.7 10 13 10Z" fill="#000000"/>
<path d="M13 11C12.7 11 12.5 11.2 12.5 11.5C12.5 11.8 12.7 12 13 12C13.3 12 13.5 11.8 13.5 11.5C13.5 11.2 13.3 11 13 11Z" fill="#000000"/>
</svg>
